<svg xmlns="http://www.w3.org/2000/svg" id="ab2067dc-cd85-49c4-9291-fd658139481f" data-name="Layer 1" viewBox="0 0 83 41"><path d="M39.3333,13.6836a2.6688,2.6688,0,0,0-.4073,1.54,2.6624,2.6624,0,0,0,.0991.7813,1.7726,1.7726,0,0,0,.3082.583,2.77,2.77,0,0,0,.5385.5059q.33.2432.792.5283V12.9805A1.7669,1.7669,0,0,0,39.3333,13.6836Z" style="fill-rule:evenodd"></path><path d="M42.3577,21.45v4.73a2.1141,2.1141,0,0,0,1.332-.6485,2.084,2.084,0,0,0,.4941-1.4628,2.2568,2.2568,0,0,0-.5273-1.5733A5.6663,5.6663,0,0,0,42.3577,21.45Z" style="fill-rule:evenodd"></path><path d="M79.1794,3.7119,75.67,0H0V41H83V7.28ZM45.9436,26.4883A5.679,5.679,0,0,1,42.3577,27.72V30.36H40.6638V27.72a7.4944,7.4944,0,0,1-2.0566-.4287,5.1711,5.1711,0,0,1-1.54-.8691,3.8215,3.8215,0,0,1-.957-1.166,2.8353,2.8353,0,0,1-.33-1.32,2.0362,2.0362,0,0,1,.4512-1.3525,1.5823,1.5823,0,0,1,1.2866-.5391,1.6173,1.6173,0,0,1,1.1773.418,1.4127,1.4127,0,0,1,.4287,1.0557,1.4284,1.4284,0,0,1-.2857.9131,1.903,1.903,0,0,1-.6381.539,3.1076,3.1076,0,0,0,.9682.8477,3.2969,3.2969,0,0,0,1.4956.3847V20.834q-.8357-.33-1.6606-.7256a6.654,6.654,0,0,1-1.4854-.9688,4.4647,4.4647,0,0,1-1.0669-1.375,4.21,4.21,0,0,1-.4067-1.9248,4.684,4.684,0,0,1,.33-1.7929,3.9219,3.9219,0,0,1,.935-1.375,4.2893,4.2893,0,0,1,1.4522-.8907,6.0913,6.0913,0,0,1,1.9028-.3632v-2.64h1.6939v2.6836a6.0423,6.0423,0,0,1,1.8047.4619,5.0944,5.0944,0,0,1,1.3418.8477,3.59,3.59,0,0,1,.8466,1.11,2.9041,2.9041,0,0,1,.2979,1.2764,1.9105,1.9105,0,0,1-.4512,1.3193,1.6062,1.6062,0,0,1-1.2656.5069,1.8094,1.8094,0,0,1-1.0557-.3194,1.0863,1.0863,0,0,1-.4619-.957,1.9923,1.9923,0,0,1,.209-.8584,1.61,1.61,0,0,1,.582-.6816,2.2258,2.2258,0,0,0-1.8476-1.1875v5.3457q1.21.5727,2.123,1.11A8.1831,8.1831,0,0,1,46.01,20.57a3.9532,3.9532,0,0,1,.9131,1.2871,4.0122,4.0122,0,0,1,.2969,1.5947A3.836,3.836,0,0,1,45.9436,26.4883Z" style="fill-rule:evenodd"></path></svg>