<svg xmlns="http://www.w3.org/2000/svg" id="ad8fefe6-64b2-4f53-832d-d32dbbac101d" data-name="Layer 1" viewBox="0 0 32 80.5"><circle cx="20" cy="58" r="1"></circle><circle cx="13" cy="47" r="1"></circle><path d="M28,22.5H23v-12H17V3h6.5V0H13V10.5H9v12H4a4,4,0,0,0-4,4v50a4,4,0,0,0,4,4H28a4,4,0,0,0,4-4v-50A4,4,0,0,0,28,22.5ZM13,44a3,3,0,1,1-3,3A3.0033,3.0033,0,0,1,13,44Zm7,17a3,3,0,1,1,3-3A3.0033,3.0033,0,0,1,20,61Zm-8.8315.4043L9.5957,60.1689,21.8311,44.5957l1.5732,1.2354Z" style="fill-rule:evenodd"></path></svg>