<svg xmlns="http://www.w3.org/2000/svg" id="af2585b5-b178-4d24-8e28-c8d246bc1537" data-name="Layer 1" viewBox="0 0 68 68"><rect x="28.7998" y="46.3994" width="10.4004" height="10.4004"></rect><rect x="28.7998" y="28" width="10.4004" height="10.4004"></rect><rect x="10.3999" y="9.5996" width="10.4004" height="10.4004"></rect><rect x="10.3999" y="28" width="10.4004" height="10.4004"></rect><rect x="28.7998" y="9.5996" width="10.4004" height="10.4004"></rect><rect x="10.3999" y="46.3994" width="10.4004" height="10.4004"></rect><rect x="47.2002" y="28" width="10.4004" height="10.4004"></rect><path d="M0,0V68H68V0ZM22.4,58.3994H8.8V44.8H22.4ZM22.4,40H8.8V26.4H22.4Zm0-18.4H8.8V8H22.4Zm18.4,36.8H27.2V44.8H40.8ZM40.8,40H27.2V26.4H40.8Zm0-18.4H27.2V8H40.8Zm18.4,36.8h-13.6V44.8H59.2ZM59.2,40h-13.6V26.4H59.2Zm0-18.4H45.6V8H59.2Z"></path><rect x="47.2002" y="46.3994" width="10.4004" height="10.4004"></rect><polygon points="56.733 12.532 55.538 11.468 51.094 16.467 49.472 15.005 48.401 16.194 51.219 18.733 56.733 12.532"></polygon></svg>